<svg
    xmlns="http://www.w3.org/2000/svg"
    viewBox="0 0 2787.56 156.07"
    fill="#ffffff"
    role="img"
    aria-describedby="logo-wide-title logo-wide-desc" 
>
    <title id="logo-wide-title">Aaron Burrows Logo - Wide</title>
    <desc id="logo-wide-desc">Aaron Burrows displayed as a long line of text</desc>
    <path d="M114.42,152.71h41.42L99.64,3.36h-42.32L0,152.71h40.98l10.08-25.08h54.19l9.18,25.08ZM61.8,98.07l16.35-48.36,16.79,48.36h-33.14Z"/>
    <path d="M340.58,152.71h41.42L325.8,3.36h-42.32l-57.32,149.35h40.98l10.08-25.08h54.19l9.18,25.08ZM287.96,98.07l16.35-48.36,16.79,48.36h-33.14Z"/>
    <path d="M466.42,3.36v149.35h38.74v-57.32l37.17,57.32h48.14l-46.8-61.13c6.94-1.34,14.78-4.7,20.6-10.3,7.39-7.17,11.87-18.36,11.87-31.12,0-11.87-4.25-24.85-12.76-33.59-10.97-11.42-25.3-13.21-36.5-13.21h-60.46ZM505.16,33.36h7.39c8.51,0,15,2.24,18.58,5.82,3.36,3.13,5.15,8.06,5.15,12.54,0,4.7-2.02,9.63-4.93,12.54-4.7,4.48-12.99,6.05-18.81,6.05h-7.39v-36.95Z"/>
    <path d="M832.08,78.14c0-19.93-7.61-40.98-23.51-55.98-15.23-14.55-36.72-22.17-58.89-22.17s-43.66,7.61-58.89,22.17c-15.9,15-23.51,36.05-23.51,55.98s7.61,40.53,23.51,55.75c15.23,14.55,36.72,22.17,58.89,22.17s43.66-7.61,58.89-22.17c15.9-15.23,23.51-36.05,23.51-55.75ZM749.68,37.62c10.3,0,21.72,4.03,30,11.87,6.94,6.72,12.09,17.02,12.09,28.66s-5.15,21.72-12.09,28.66c-6.94,6.94-16.79,11.64-30,11.64s-23.06-4.93-30.23-11.87c-5.6-5.37-11.87-14.55-11.87-27.77,0-10.52,3.81-21.5,11.87-29.33,8.06-8.06,19.48-11.87,30.23-11.87Z"/>
    <path d="M962.63,152.71V61.35l71.43,91.36h38.74V3.36h-38.74v91.36L962.63,3.36h-38.74v149.35h38.74Z"/>
    <path d="M1352.92,152.71c18.36,0,32.47-5.82,40.53-14.11,5.6-5.6,10.97-15.23,10.97-29.33,0-11.87-4.03-21.5-10.08-27.32-4.7-4.48-12.54-8.06-20.38-8.96,5.6-2.46,8.96-5.82,12.09-11.64,3.13-6.27,4.25-11.87,4.25-18.36,0-13.21-4.03-22.39-9.18-27.99-9.18-10.08-21.94-11.64-32.69-11.64h-57.77v149.35h62.25ZM1329.41,33.14h7.17c7.61,0,12.32,2.02,14.78,4.48,2.24,2.46,3.58,6.27,3.58,10.08,0,3.36-1.12,7.39-3.58,9.85-4.03,4.25-10.75,4.7-14.78,4.7h-7.17v-29.11ZM1329.41,91.13h8.06c9.63,0,19.26.22,23.96,4.93,2.24,2.24,3.81,6.05,3.81,10.75,0,4.25-1.34,7.61-3.13,9.63-4.25,4.93-13.21,6.05-23.96,6.05h-8.73v-31.35Z"/>
    <path d="M1496.23,3.36v85.76c0,15.9,1.57,34.93,14.55,49.04,9.18,9.85,25.97,17.91,49.48,17.91,21.05,0,36.72-5.82,49.26-18.58,16.12-16.35,16.79-32.69,16.79-48.36V3.36h-38.74v85.09c0,8.28.22,19.26-8.73,27.09-4.25,3.81-11.2,6.49-17.91,6.49s-13.88-2.91-18.36-7.17c-7.39-7.17-7.61-16.79-7.61-23.06V3.36h-38.74Z"/>
    <path d="M1724.85,3.36v149.35h38.74v-57.32l37.17,57.32h48.14l-46.8-61.13c6.94-1.34,14.78-4.7,20.6-10.3,7.39-7.17,11.87-18.36,11.87-31.12,0-11.87-4.25-24.85-12.76-33.59-10.97-11.42-25.3-13.21-36.5-13.21h-60.46ZM1763.58,33.36h7.39c8.51,0,15,2.24,18.58,5.82,3.36,3.13,5.15,8.06,5.15,12.54,0,4.7-2.02,9.63-4.93,12.54-4.7,4.48-12.99,6.05-18.81,6.05h-7.39v-36.95Z"/>
    <path d="M1932.42,3.36v149.35h38.74v-57.32l37.17,57.32h48.14l-46.8-61.13c6.94-1.34,14.78-4.7,20.6-10.3,7.39-7.17,11.87-18.36,11.87-31.12,0-11.87-4.25-24.85-12.76-33.59-10.97-11.42-25.3-13.21-36.5-13.21h-60.46ZM1971.16,33.36h7.39c8.51,0,15,2.24,18.58,5.82,3.36,3.13,5.15,8.06,5.15,12.54,0,4.7-2.02,9.63-4.93,12.54-4.7,4.48-12.99,6.05-18.81,6.05h-7.39v-36.95Z"/>
    <path d="M2298.07,78.14c0-19.93-7.61-40.98-23.51-55.98-15.23-14.55-36.72-22.17-58.89-22.17s-43.66,7.61-58.89,22.17c-15.9,15-23.51,36.05-23.51,55.98s7.61,40.53,23.51,55.75c15.23,14.55,36.72,22.17,58.89,22.17s43.66-7.61,58.89-22.17c15.9-15.23,23.51-36.05,23.51-55.75ZM2215.68,37.62c10.3,0,21.72,4.03,30,11.87,6.94,6.72,12.09,17.02,12.09,28.66s-5.15,21.72-12.09,28.66c-6.94,6.94-16.79,11.64-30,11.64s-23.06-4.93-30.23-11.87c-5.6-5.37-11.87-14.55-11.87-27.77,0-10.52,3.81-21.5,11.87-29.33,8.06-8.06,19.48-11.87,30.23-11.87Z"/>
    <path d="M2374.21,3.36l44.56,149.35h39.41l28.66-86.43,27.09,86.43h39.63l47.69-149.35h-40.53l-28.21,96.51-29.33-96.51h-30.9l-31.57,96.51-25.97-96.51h-40.53Z"/>
    <path d="M2677.4,139.27c10.75,7.39,20.15,10.97,22.61,11.87,10.97,4.03,19.93,4.93,29.33,4.93,15.9,0,31.35-2.46,44.11-15.23,10.75-10.75,14.11-23.96,14.11-37.62,0-10.3-2.02-18.58-9.63-26.65-7.84-8.51-17.69-11.87-27.09-14.78l-11.87-3.58c-9.18-2.69-11.87-5.37-12.99-6.72-1.57-2.02-2.02-4.03-2.02-6.72,0-3.36,1.57-5.82,3.81-8.06,3.81-3.58,8.96-4.48,12.76-4.48,5.15,0,13.88.9,25.53,10.08l15.45-30.23c-14.11-7.39-31.35-12.09-46.13-12.09-18.14,0-30.68,6.49-38.29,14.11-6.49,6.49-13.66,17.69-13.66,36.05,0,7.61.9,18.14,8.51,26.42,6.05,6.72,15.23,10.08,21.5,12.09l10.08,3.13c9.63,2.91,15.45,4.48,19.26,7.84,3.13,2.69,4.25,6.05,4.25,8.96,0,3.81-1.57,7.17-3.81,9.4-2.46,2.69-7.17,5.15-15,5.15-13.43,0-25.97-7.39-34.26-15.23l-16.57,31.35Z"/>
</svg>