<svg
    xmlns="http://www.w3.org/2000/svg"
    viewBox="0 0 600 600"
    fill="#ffffff"
    role="img"
    aria-describedby="logo-title logo-desc"
>
    <title id="logo-title">Aaron Burrows Logo</title>
    <desc id="logo-desc">Aaron Burrows spelled out in a box with three rows</desc>
    <path d="m230.38,436.42c-2.58-1.79-5.76-2.69-9.54-2.69s-6.95.9-9.54,2.69c-2.58,1.79-4.54,4.42-5.87,7.88-1.33,3.46-1.99,7.71-1.99,12.74s.66,9.28,1.99,12.74c1.33,3.46,3.28,6.09,5.87,7.88,2.58,1.79,5.76,2.69,9.54,2.69s6.95-.9,9.54-2.69c2.58-1.79,4.54-4.42,5.87-7.88,1.33-3.46,1.99-7.71,1.99-12.74s-.66-9.28-1.99-12.74c-1.33-3.46-3.28-6.09-5.87-7.88Z"/>
    <polygon class="cls-1" points="241.79 114.73 233.42 142.47 250.82 142.47 242.44 114.73 241.79 114.73"/>
    <path d="m243.55,302.46c-1.66-.71-3.64-1.07-5.97-1.07h-10.99v17.72h10.67c3.83,0,6.7-.72,8.62-2.15,1.91-1.44,2.87-3.56,2.87-6.38,0-1.97-.45-3.64-1.35-5.01-.9-1.37-2.18-2.41-3.84-3.12Z"/>
    <path d="m241.23,286.34c1.53-.63,2.73-1.54,3.59-2.73.86-1.19,1.29-2.65,1.29-4.37,0-2.6-.93-4.59-2.79-5.97-1.86-1.38-4.21-2.07-7.06-2.07h-9.68v16.08h9.35c2,0,3.76-.31,5.29-.94Z"/>
    <path d="m367.87,129.15c1.9-.67,3.36-1.74,4.39-3.22,1.03-1.48,1.54-3.41,1.54-5.78s-.51-4.37-1.54-5.89c-1.03-1.52-2.49-2.64-4.39-3.36-1.9-.72-4.19-1.09-6.87-1.09h-8.04v20.35h8.04c2.68,0,4.97-.33,6.87-1.01Z"/>
    <polygon class="cls-1" points="113.22 114.73 104.85 142.47 122.25 142.47 113.88 114.73 113.22 114.73"/>
    <path d="m110.74,434.33c-1.9-.72-4.19-1.09-6.87-1.09h-8.04v20.35h8.04c2.68,0,4.97-.33,6.87-1.01,1.9-.67,3.36-1.74,4.39-3.22,1.03-1.48,1.54-3.41,1.54-5.78s-.51-4.37-1.54-5.89c-1.03-1.52-2.49-2.64-4.39-3.36Z"/>
    <path d="m496.44,272.61c-1.9-.72-4.19-1.09-6.87-1.09h-8.04v20.35h8.04c2.68,0,4.97-.33,6.87-1.01,1.9-.67,3.36-1.74,4.39-3.22,1.03-1.48,1.54-3.41,1.54-5.78s-.51-4.37-1.54-5.89c-1.03-1.52-2.49-2.64-4.39-3.36Z"/>
    <path d="m474.94,154.22c2.58,1.79,5.76,2.69,9.54,2.69s6.95-.9,9.54-2.69c2.58-1.79,4.54-4.42,5.87-7.88,1.33-3.46,1.99-7.71,1.99-12.74s-.66-9.28-1.99-12.74c-1.33-3.46-3.28-6.09-5.87-7.88-2.58-1.79-5.76-2.69-9.54-2.69s-6.95.9-9.54,2.69c-2.58,1.79-4.54,4.42-5.87,7.88-1.33,3.46-1.99,7.71-1.99,12.74s.66,9.28,1.99,12.74c1.33,3.46,3.28,6.09,5.87,7.88Z"/>
    <path d="m0,0v600h600V0H0Zm330.15,91.6h36.27c6.24,0,11.69,1.14,16.37,3.41,4.68,2.27,8.31,5.54,10.91,9.81,2.6,4.27,3.9,9.38,3.9,15.34s-1.33,11.09-4,15.22c-2.49,3.86-5.92,6.83-10.27,8.93l17.06,31.32h-24.78l-14.75-27.73h-7.89v27.73h-22.81v-84.02Zm-2.02,161.71h22.81v51.86c0,2.6.57,4.92,1.72,6.95,1.15,2.04,2.74,3.63,4.78,4.78,2.04,1.15,4.36,1.72,6.95,1.72s4.95-.57,6.97-1.72c2.02-1.15,3.61-2.74,4.76-4.78,1.15-2.04,1.72-4.36,1.72-6.95v-51.86h22.81v53.82c0,6.4-1.53,11.93-4.57,16.59-3.05,4.66-7.3,8.26-12.74,10.79-5.44,2.53-11.76,3.79-18.95,3.79s-13.59-1.26-19.04-3.79c-5.44-2.53-9.68-6.13-12.7-10.79-3.02-4.66-4.53-10.19-4.53-16.59v-53.82Zm-209.65,245.73l-14.75-27.73h-7.89v27.73h-22.81v-84.02h36.27c6.24,0,11.69,1.14,16.37,3.41,4.68,2.27,8.31,5.54,10.91,9.8,2.6,4.27,3.9,9.38,3.9,15.34s-1.33,11.09-4,15.22c-2.49,3.86-5.92,6.83-10.27,8.93l17.06,31.32h-24.78Zm27.24-161.71h-19.04l-30.36-44.14h-.49v44.14h-22.81v-84.02h19.36l29.87,43.98h.66v-43.98h22.81v84.02Zm-13.46-161.71l-4.85-16.08h-27.71l-4.85,16.08h-24.62l27.73-84.02h31.18l27.73,84.02h-24.62Zm123.98,305.07c-3.64,6.41-8.55,11.27-14.73,14.56-6.18,3.3-13.07,4.94-20.68,4.94s-14.57-1.66-20.74-4.98c-6.17-3.32-11.06-8.19-14.69-14.6-3.62-6.41-5.44-14.27-5.44-23.57s1.81-17.24,5.44-23.65c3.62-6.41,8.52-11.27,14.69-14.56,6.17-3.3,13.08-4.94,20.74-4.94s14.5,1.65,20.68,4.94c6.18,3.3,11.09,8.15,14.73,14.56,3.64,6.41,5.46,14.3,5.46,23.65s-1.82,17.24-5.46,23.65Zm13.03-154.88c-2.39,3.58-5.79,6.4-10.19,8.45-4.4,2.05-9.66,3.08-15.75,3.08h-39.55v-84.02h36.43c6.4,0,11.78.86,16.14,2.58,4.36,1.72,7.66,4.16,9.89,7.3,2.23,3.15,3.34,6.85,3.34,11.12,0,3.09-.68,5.91-2.03,8.45-1.35,2.54-3.25,4.67-5.68,6.38-2.43,1.71-5.28,2.89-8.53,3.55v.82c3.61.14,6.89,1.05,9.85,2.73,2.95,1.68,5.31,3.99,7.06,6.93,1.75,2.94,2.63,6.39,2.63,10.36,0,4.59-1.2,8.68-3.59,12.27Zm-8.44-150.19l-4.85-16.08h-27.71l-4.85,16.08h-24.62l27.73-84.02h31.18l27.73,84.02h-24.62Zm135.73,323.43h-21.83l-14.28-46.93h-.66l-14.28,46.93h-21.83l-24.78-84.02h25.44l11.49,51.69h.66l13.62-51.69h20.02l13.62,51.86h.66l11.49-51.86h25.44l-24.78,84.02Zm52.5-341.87c-3.62-6.41-5.44-14.27-5.44-23.57s1.81-17.24,5.44-23.65c3.62-6.41,8.52-11.27,14.69-14.56,6.17-3.3,13.08-4.94,20.74-4.94s14.5,1.65,20.68,4.94c6.18,3.3,11.09,8.15,14.73,14.56,3.64,6.41,5.46,14.3,5.46,23.65s-1.82,17.24-5.46,23.65c-3.64,6.41-8.55,11.27-14.73,14.56-6.18,3.3-13.07,4.94-20.68,4.94s-14.57-1.66-20.74-4.98c-6.17-3.32-11.06-8.19-14.69-14.6Zm73.95,331.12c-2.74,3.83-6.64,6.74-11.71,8.74-5.07,2-11.17,2.99-18.28,2.99s-13.67-1.08-19.1-3.24c-5.43-2.16-9.64-5.49-12.64-9.99-2.99-4.5-4.51-10.26-4.53-17.29h21.66c.14,2.57.78,4.73,1.93,6.48,1.15,1.75,2.77,3.08,4.86,3.98,2.09.9,4.59,1.35,7.49,1.35,2.43,0,4.47-.3,6.11-.9,1.64-.6,2.89-1.44,3.73-2.5.85-1.07,1.29-2.28,1.31-3.65-.03-1.29-.44-2.41-1.25-3.38-.81-.97-2.13-1.85-3.96-2.63-1.83-.78-4.31-1.51-7.43-2.19l-8.37-1.81c-7.44-1.61-13.3-4.31-17.58-8.1-4.28-3.79-6.41-8.96-6.38-15.53-.03-5.33,1.4-10,4.29-14.01,2.89-4.01,6.89-7.13,12.02-9.37,5.13-2.24,11.02-3.36,17.66-3.36s12.65,1.14,17.6,3.41c4.95,2.27,8.77,5.46,11.47,9.58,2.69,4.12,4.05,8.92,4.08,14.42h-21.83c-.22-2.73-1.24-4.87-3.06-6.4-1.82-1.53-4.57-2.3-8.27-2.3-2.35,0-4.27.28-5.76.84-1.49.56-2.59,1.32-3.3,2.28-.71.96-1.08,2.05-1.11,3.28-.06,1.01.13,1.92.55,2.73.42.81,1.1,1.53,2.03,2.17.93.64,2.12,1.22,3.57,1.74,1.45.52,3.17.98,5.17,1.39l6.89,1.48c4.65.98,8.63,2.28,11.94,3.9,3.31,1.61,6.02,3.51,8.12,5.68,2.11,2.17,3.66,4.62,4.66,7.32,1,2.71,1.51,5.66,1.54,8.86-.03,5.52-1.41,10.2-4.14,14.03Zm-18.83-150.97l-14.75-27.73h-7.89v27.73h-22.81v-84.02h36.27c6.24,0,11.69,1.14,16.37,3.41,4.68,2.27,8.31,5.54,10.91,9.8,2.6,4.27,3.9,9.38,3.9,15.34s-1.33,11.09-4,15.22c-2.49,3.86-5.92,6.83-10.27,8.93l17.06,31.32h-24.78Z"/>
</svg>