<svg xmlns="http://www.w3.org/2000/svg" viewBox="0 0 1078.89 56.88"><path fill="#ffffff" d="M33.5,34.64l-6.85-20h-.16l-7.08,20ZM32.81,1.29,53.14,55.65H40.73l-4.11-12.1H16.29L12,55.65H0L20.56,1.29Zm84.82,33.35-6.85-20h-.16l-7.08,20Zm-.69-33.35,20.33,54.36H124.86l-4.11-12.1H100.42l-4.26,12.1h-12L104.68,1.29ZM199,25.89c2.75,0,4.8-.61,6.17-1.83s2.06-3.2,2.06-5.94-.69-4.55-2.06-5.75-3.42-1.79-6.17-1.79H185.92V25.89Zm4.27-24.6a17.62,17.62,0,0,1,6.58,1.18,15.3,15.3,0,0,1,5,3.24,14.12,14.12,0,0,1,3.2,4.76,15.28,15.28,0,0,1,1.1,5.82,16.28,16.28,0,0,1-2,8.3,12.65,12.65,0,0,1-6.58,5.33v.15a9.2,9.2,0,0,1,3.65,1.87,10.33,10.33,0,0,1,2.36,3,13.54,13.54,0,0,1,1.33,3.77,31.5,31.5,0,0,1,.57,4.11c.05.86.11,1.88.16,3s.14,2.36.26,3.58a24,24,0,0,0,.61,3.47,8.09,8.09,0,0,0,1.26,2.77H208.84a20.62,20.62,0,0,1-1.22-6.16q-.23-3.59-.69-6.85c-.4-2.85-1.27-4.93-2.59-6.25s-3.47-2-6.47-2h-12V55.65H174V1.29Zm68,34.07a18.08,18.08,0,0,0,2.55,5.83,13.09,13.09,0,0,0,4.57,4.15,15.84,15.84,0,0,0,13.71,0,13.06,13.06,0,0,0,4.56-4.15,18.1,18.1,0,0,0,2.56-5.83A27.64,27.64,0,0,0,300,28.7a30,30,0,0,0-.79-6.93,18.39,18.39,0,0,0-2.56-6,12.91,12.91,0,0,0-4.56-4.19,15.84,15.84,0,0,0-13.71,0,13,13,0,0,0-4.57,4.19,18.37,18.37,0,0,0-2.55,6,30.51,30.51,0,0,0-.8,6.93,28.16,28.16,0,0,0,.8,6.66Zm-10.92-18a27.17,27.17,0,0,1,5.25-9.1,24,24,0,0,1,8.42-6.09,29.71,29.71,0,0,1,22.49,0,24.19,24.19,0,0,1,8.38,6.09,27,27,0,0,1,5.25,9.1A33.92,33.92,0,0,1,312,28.7a32.9,32.9,0,0,1-1.83,11.08,26.51,26.51,0,0,1-5.25,8.95,24.18,24.18,0,0,1-8.38,6,30.25,30.25,0,0,1-22.5,0,24.16,24.16,0,0,1-8.41-6,26.51,26.51,0,0,1-5.25-8.95,32.9,32.9,0,0,1-1.83-11.08A33.92,33.92,0,0,1,260.38,17.4ZM364,1.29l22.69,36.47h.15V1.29H398V55.65H386.08L363.47,19.26h-.16V55.65H352.12V1.29Zm153.71,22A8.56,8.56,0,0,0,523,21.77Q525,20.26,525,16.83a6.29,6.29,0,0,0-.69-3.13,5.11,5.11,0,0,0-1.82-1.9,7.69,7.69,0,0,0-2.63-1,17.72,17.72,0,0,0-3.08-.27H505.6V23.3Zm1.52-22a33.66,33.66,0,0,1,7.08.69,15.26,15.26,0,0,1,5.49,2.25,10.52,10.52,0,0,1,3.54,4.14,14.72,14.72,0,0,1,1.25,6.4,11.93,11.93,0,0,1-1.86,6.85,13.55,13.55,0,0,1-5.52,4.49,13.11,13.11,0,0,1,7.5,5.07,15,15,0,0,1,2.47,8.71,14.88,14.88,0,0,1-1.6,7.12,13.83,13.83,0,0,1-4.3,4.91,19,19,0,0,1-6.17,2.82,27.53,27.53,0,0,1-7.12.91H493.65V1.29Zm-.83,45.08a15.82,15.82,0,0,0,3.35-.35,8.2,8.2,0,0,0,2.81-1.14,5.63,5.63,0,0,0,1.94-2.17,7.42,7.42,0,0,0,.73-3.5q0-4.18-2.36-6a10.12,10.12,0,0,0-6.25-1.79h-13V46.37ZM619.2,51.5q-6.16,5.37-17.06,5.37t-17.09-5.33Q579,46.22,579,35.1V1.29h12V35.1a25.36,25.36,0,0,0,.38,4.34,8.44,8.44,0,0,0,5,6.43,13.7,13.7,0,0,0,5.82,1q6.4,0,8.83-2.86t2.44-8.94V1.29h12V35.1q0,11-6.16,16.4Zm73.47-25.61q4.11,0,6.16-1.83t2.06-5.94c0-2.64-.69-4.55-2.06-5.75s-3.42-1.79-6.16-1.79h-13.1V25.89Zm4.26-24.6a17.67,17.67,0,0,1,6.59,1.18,15.25,15.25,0,0,1,5,3.24,14.12,14.12,0,0,1,3.2,4.76,15.28,15.28,0,0,1,1.1,5.82,16.28,16.28,0,0,1-2,8.3,12.65,12.65,0,0,1-6.58,5.33v.15a9.2,9.2,0,0,1,3.65,1.87,10,10,0,0,1,2.36,3,13.57,13.57,0,0,1,1.34,3.77,35.32,35.32,0,0,1,.57,4.11c.05.86.1,1.88.15,3s.14,2.36.27,3.58a24,24,0,0,0,.6,3.47,8.09,8.09,0,0,0,1.26,2.77h-12a21.26,21.26,0,0,1-1.22-6.16q-.22-3.59-.69-6.85-.6-4.28-2.58-6.25t-6.48-2H679.57V55.65h-12V1.29Zm82.68,24.6q4.11,0,6.17-1.83t2.05-5.94c0-2.64-.68-4.55-2.05-5.75s-3.43-1.79-6.17-1.79H766.52V25.89Zm4.27-24.6a17.62,17.62,0,0,1,6.58,1.18,15.4,15.4,0,0,1,5,3.24,14.09,14.09,0,0,1,3.19,4.76,15.29,15.29,0,0,1,1.11,5.82,16.38,16.38,0,0,1-2,8.3,12.67,12.67,0,0,1-6.59,5.33v.15a9.17,9.17,0,0,1,3.66,1.87,10.33,10.33,0,0,1,2.36,3,13.87,13.87,0,0,1,1.33,3.77,31.5,31.5,0,0,1,.57,4.11c0,.86.1,1.88.15,3s.14,2.36.27,3.58a24,24,0,0,0,.61,3.47,7.73,7.73,0,0,0,1.26,2.77h-12a21.26,21.26,0,0,1-1.22-6.16q-.23-3.59-.68-6.85-.62-4.28-2.59-6.25t-6.47-2h-12V55.65h-12V1.29Zm68,34.07a18.08,18.08,0,0,0,2.55,5.83A13.09,13.09,0,0,0,859,45.34a15.82,15.82,0,0,0,13.7,0,13,13,0,0,0,4.57-4.15,18.08,18.08,0,0,0,2.55-5.83,27.16,27.16,0,0,0,.8-6.66,29.42,29.42,0,0,0-.8-6.93,18.37,18.37,0,0,0-2.55-6,12.94,12.94,0,0,0-4.57-4.19,15.82,15.82,0,0,0-13.7,0,12.94,12.94,0,0,0-4.57,4.19,18.37,18.37,0,0,0-2.55,6,30,30,0,0,0-.8,6.93,27.65,27.65,0,0,0,.8,6.66ZM841,17.4a27,27,0,0,1,5.25-9.1,24,24,0,0,1,8.41-6.09,29.74,29.74,0,0,1,22.5,0,24.06,24.06,0,0,1,8.37,6.09,27,27,0,0,1,5.26,9.1,33.91,33.91,0,0,1,1.82,11.3,32.64,32.64,0,0,1-1.82,11.08,26.54,26.54,0,0,1-5.26,8.95,24.14,24.14,0,0,1-8.37,6,30.25,30.25,0,0,1-22.5,0,24.16,24.16,0,0,1-8.41-6A26.35,26.35,0,0,1,841,39.78a32.9,32.9,0,0,1-1.83-11.08A33.91,33.91,0,0,1,841,17.4ZM972.61,55.65l-9.21-37h-.15l-9.06,37H942.08L927.69,1.29h11.95l8.61,37h.15l9.44-37H969l9.29,37.46h.15l8.91-37.46H999.1L984.49,55.65Zm73.09-13.4a8.5,8.5,0,0,0,2.62,3.09,11.39,11.39,0,0,0,3.85,1.75,18.44,18.44,0,0,0,4.56.57,23.1,23.1,0,0,0,3.43-.27,11.8,11.8,0,0,0,3.43-1,7.46,7.46,0,0,0,2.66-2.1,5.24,5.24,0,0,0,1.07-3.39,4.78,4.78,0,0,0-1.41-3.57,11.15,11.15,0,0,0-3.69-2.29,37.8,37.8,0,0,0-5.18-1.6q-2.89-.68-5.86-1.52a51.15,51.15,0,0,1-5.94-1.87,20.14,20.14,0,0,1-5.18-2.85,13.43,13.43,0,0,1-3.69-4.38,13.28,13.28,0,0,1-1.41-6.36,14.27,14.27,0,0,1,1.79-7.27A16.18,16.18,0,0,1,1041.43,4,20.42,20.42,0,0,1,1048,1a27.77,27.77,0,0,1,7.31-1,34.7,34.7,0,0,1,8.18,1,20.31,20.31,0,0,1,7,3.09,15.5,15.5,0,0,1,4.83,5.44,16.6,16.6,0,0,1,1.79,8h-11.57a9.44,9.44,0,0,0-1-4,6.69,6.69,0,0,0-2.32-2.52,9.72,9.72,0,0,0-3.31-1.29,20.63,20.63,0,0,0-4.07-.38,14.06,14.06,0,0,0-2.9.3,7.79,7.79,0,0,0-2.62,1.07,6.54,6.54,0,0,0-2,1.9,5.19,5.19,0,0,0-.76,2.9,4.85,4.85,0,0,0,.61,2.58,5.5,5.5,0,0,0,2.4,1.83,30.69,30.69,0,0,0,5,1.68q3.16.84,8.26,2.13c1,.2,2.42.57,4.22,1.1a20.07,20.07,0,0,1,5.37,2.55A16.31,16.31,0,0,1,1077,32a13.39,13.39,0,0,1,1.94,7.5,16.54,16.54,0,0,1-1.45,6.93,15,15,0,0,1-4.3,5.52,20.77,20.77,0,0,1-7.08,3.62,33.37,33.37,0,0,1-9.78,1.29,34.23,34.23,0,0,1-8.72-1.1,22,22,0,0,1-7.46-3.47,17,17,0,0,1-5.14-6,18,18,0,0,1-1.83-8.68h11.58a9.9,9.9,0,0,0,1,4.64Z" /></svg>